<svg version="1.1" id="Layer_1" xmlns="http://www.w3.org/2000/svg" xmlns:xlink="http://www.w3.org/1999/xlink" x="0px" y="0px"
	 width="100%" viewBox="0 0 300 297" enable-background="new 0 0 300 297" xml:space="preserve">
<path fill="#47704C" opacity="1.000000" stroke="none" 
	d="
M115.000000,298.000000 
	C76.999969,298.000000 38.999943,298.000000 1.000000,298.000000 
	C1.000000,293.246307 1.000000,288.595795 1.465707,283.473450 
	C5.258949,282.992493 8.587720,282.922852 11.913682,282.990784 
	C15.420230,283.062378 17.617517,281.679077 18.175333,278.026428 
	C18.725529,274.423615 19.633307,270.861542 19.965282,267.243164 
	C20.307039,263.518188 22.030046,261.847992 25.727789,262.009247 
	C27.553570,262.088837 29.389196,262.037445 31.216948,261.962189 
	C46.152088,261.347290 54.955200,253.767853 57.699451,239.187469 
	C59.882603,227.588257 54.931133,219.498672 43.311035,218.041412 
	C33.811115,216.850006 24.093695,217.162628 14.481727,217.329208 
	C12.940138,217.355927 10.559675,219.878677 10.094904,221.648743 
	C8.668440,227.081436 7.959983,232.704926 7.017216,238.261856 
	C4.996576,250.172043 3.004042,262.087006 1.000000,274.000000 
	C1.000000,183.105682 1.000000,92.211372 1.000000,1.000000 
	C35.353577,1.000000 69.708130,1.000000 104.363205,1.295636 
	C103.074860,4.763413 100.612396,7.786386 100.041077,11.132276 
	C96.716423,30.602964 93.863914,50.153889 90.799034,69.669411 
	C85.802277,101.486176 80.764145,133.296448 75.745285,165.109756 
	C74.775047,171.259903 76.791496,173.854446 83.022812,173.947342 
	C94.343941,174.116104 105.667816,174.101517 116.991608,174.586182 
	C116.413383,178.857254 115.811729,182.702377 115.261391,186.554855 
	C114.754784,190.101151 114.526978,193.552338 119.514290,194.850403 
	C126.099655,194.915527 132.225433,195.036331 138.346176,194.911102 
	C143.416214,194.807373 148.480347,194.413528 153.847198,194.358841 
	C156.075607,191.875015 159.148239,189.405197 159.729111,186.446228 
	C161.947052,175.147964 163.341232,163.688873 165.084229,152.296158 
	C166.571121,142.577408 168.444595,141.009918 178.367096,141.001617 
	C181.195053,140.999252 184.039871,141.200928 186.848068,140.965012 
	C199.801407,139.876755 211.851379,136.240036 221.435730,126.999702 
	C237.103348,111.894440 242.265564,92.943047 239.795807,71.915443 
	C238.656830,62.218155 233.574905,54.271248 224.254578,49.582474 
	C228.385498,27.426355 218.423843,10.679307 197.461288,4.012654 
	C194.004456,2.913290 190.488586,1.999535 187.000000,0.999999 
	C224.949722,1.000000 262.899445,1.000000 301.000000,1.000000 
	C301.000000,73.020828 301.000000,145.041748 300.613403,217.370331 
	C297.609863,217.451447 294.978668,217.329666 292.378967,216.976212 
	C287.210876,216.273590 285.566132,218.735168 284.871033,223.632538 
	C282.554749,239.951614 279.831665,256.215027 277.103851,272.472839 
	C275.307037,283.181885 275.191742,282.847473 286.099426,283.140991 
	C290.963043,283.271851 292.217957,280.685364 292.805237,277.067596 
	C294.311157,267.790253 295.522308,258.465118 297.020447,249.186432 
	C298.217926,241.770111 299.664154,234.393967 301.000000,227.000000 
	C301.000000,250.623810 301.000000,274.247620 301.000000,298.000000 
	C244.312500,298.000000 187.624908,298.000000 130.632629,297.706909 
	C142.668030,279.726776 155.008896,262.040344 167.347397,244.352219 
	C169.541656,241.206573 168.734146,239.487366 164.906815,239.060471 
	C157.373199,238.220184 150.786163,238.906982 147.126297,247.122208 
	C145.395767,251.006683 142.401657,254.321243 140.054520,257.942261 
	C139.362518,259.009888 138.925232,260.242584 138.371216,261.399597 
	C137.798737,261.035400 137.226257,260.671204 136.653793,260.307007 
	C135.081543,255.113037 133.419846,249.943954 131.966537,244.716934 
	C130.883316,240.820923 128.683975,238.711136 124.468246,238.998505 
	C122.647575,239.122635 120.809837,239.076553 118.983025,239.014404 
	C114.536339,238.863159 113.300064,241.125214 114.584908,245.025894 
	C116.401863,250.541946 117.730682,256.351593 120.428192,261.418121 
	C126.682701,273.165466 125.039238,283.258301 115.971130,292.689758 
	C114.931267,293.771271 115.289825,296.197357 115.000000,298.000000 
M201.657303,261.147186 
	C216.038498,260.167999 222.397980,250.326691 223.850616,239.773621 
	C225.790329,225.682190 222.122757,220.123749 208.346146,217.922470 
	C199.270859,216.472382 189.828751,217.042938 180.567398,217.300781 
	C179.006027,217.344238 176.520279,220.209167 176.172775,222.087128 
	C173.569046,236.157913 171.331787,250.298309 169.116699,264.438385 
	C168.187622,270.369171 167.590546,276.351990 166.756195,282.998962 
	C171.143814,282.998962 174.636139,282.672302 178.041672,283.076660 
	C182.966095,283.661377 184.435760,281.023895 184.996140,276.893829 
	C185.526703,272.983521 185.992661,269.021576 187.077850,265.252472 
	C187.463074,263.914551 189.462540,262.428619 190.942719,262.144623 
	C194.161804,261.526978 197.520905,261.639008 201.657303,261.147186 
M68.828697,240.107849 
	C58.163391,245.177094 53.344608,254.294846 53.268806,265.423828 
	C53.166641,280.422607 67.919121,288.655884 81.857597,282.102966 
	C83.375473,281.389374 85.217400,280.760956 86.813164,280.941284 
	C90.273781,281.332306 93.648987,282.426666 97.102066,282.949982 
	C101.592499,283.630493 103.333183,280.948883 103.922470,276.959320 
	C105.231819,268.094757 106.545425,259.229767 107.986465,250.386002 
	C109.929420,238.462082 110.507912,238.663620 96.400497,239.123627 
	C95.602036,239.149643 94.825500,239.686020 94.021622,239.742981 
	C92.505737,239.850388 90.823914,240.203308 89.480087,239.714523 
	C82.785362,237.279541 76.180977,237.168427 68.828697,240.107849 
M247.328400,238.004761 
	C231.309555,235.987167 217.506424,251.624817 220.150330,269.166656 
	C220.974396,274.634247 223.413528,279.538574 229.058853,282.039215 
	C237.103180,285.602478 244.755096,284.692657 252.112839,280.252655 
	C255.546021,284.961853 260.407562,282.430939 264.598083,282.950073 
	C268.113434,283.385559 269.560547,281.430969 270.036682,278.022614 
	C271.633575,266.591461 273.111298,255.123703 275.352722,243.812256 
	C276.262482,239.221085 274.382965,239.073883 271.108337,238.986557 
	C263.643280,238.787445 256.044220,241.543152 248.722702,238.016647 
	C248.587128,237.951355 248.393356,238.006943 247.328400,238.004761 
z"/>
<path fill="#1F3D7C" opacity="1.000000" stroke="none" 
	d="
M116.990540,174.163452 
	C105.667816,174.101517 94.343941,174.116104 83.022812,173.947342 
	C76.791496,173.854446 74.775047,171.259903 75.745285,165.109756 
	C80.764145,133.296448 85.802277,101.486176 90.799034,69.669411 
	C93.863914,50.153889 96.716423,30.602964 100.041077,11.132276 
	C100.612396,7.786386 103.074860,4.763413 104.831863,1.295636 
	C132.020889,1.000000 159.041794,1.000000 186.531342,0.999999 
	C190.488586,1.999535 194.004456,2.913290 197.461288,4.012654 
	C218.423843,10.679307 228.385498,27.426355 224.174484,49.673454 
	C223.967819,50.158081 223.734833,50.224072 223.358643,50.062157 
	C217.738510,48.331303 212.541672,45.613754 207.242310,45.396469 
	C186.627594,44.551239 165.981140,44.398869 145.344528,44.233932 
	C140.987946,44.199112 138.146591,47.241802 137.482346,51.389370 
	C134.216766,71.780174 131.178696,92.207405 128.035172,112.991150 
	C125.035362,131.655792 122.095154,149.956833 119.037537,168.238235 
	C118.697624,170.270569 117.689018,172.191071 116.990540,174.163452 
z"/>
<path fill="#1F3D7D" opacity="1.000000" stroke="none" 
	d="
M1.000000,274.449982 
	C3.004042,262.087006 4.996576,250.172043 7.017216,238.261856 
	C7.959983,232.704926 8.668440,227.081436 10.094904,221.648743 
	C10.559675,219.878677 12.940138,217.355927 14.481727,217.329208 
	C24.093695,217.162628 33.811115,216.850006 43.311035,218.041412 
	C54.931133,219.498672 59.882603,227.588257 57.699451,239.187469 
	C54.955200,253.767853 46.152088,261.347290 31.216948,261.962189 
	C29.389196,262.037445 27.553570,262.088837 25.727789,262.009247 
	C22.030046,261.847992 20.307039,263.518188 19.965282,267.243164 
	C19.633307,270.861542 18.725529,274.423615 18.175333,278.026428 
	C17.617517,281.679077 15.420230,283.062378 11.913682,282.990784 
	C8.587720,282.922852 5.258949,282.992493 1.465707,283.000793 
	C1.000000,280.299988 1.000000,277.599976 1.000000,274.449982 
M35.112198,232.164581 
	C33.641113,231.924164 32.166595,231.702927 30.699541,231.440018 
	C24.473221,230.324280 25.294582,235.151566 24.600382,238.678482 
	C23.009792,246.759506 25.237663,249.108414 32.912258,246.510788 
	C35.277287,245.710281 37.650925,242.893005 38.585976,240.450073 
	C39.647480,237.676743 39.705021,234.073532 35.112198,232.164581 
z"/>
<path fill="#1F3E7D" opacity="1.000000" stroke="none" 
	d="
M115.466110,298.000000 
	C115.289825,296.197357 114.931267,293.771271 115.971130,292.689758 
	C125.039238,283.258301 126.682701,273.165466 120.428192,261.418121 
	C117.730682,256.351593 116.401863,250.541946 114.584908,245.025894 
	C113.300064,241.125214 114.536339,238.863159 118.983025,239.014404 
	C120.809837,239.076553 122.647575,239.122635 124.468246,238.998505 
	C128.683975,238.711136 130.883316,240.820923 131.966537,244.716934 
	C133.419846,249.943954 135.081543,255.113037 136.653793,260.307007 
	C137.226257,260.671204 137.798737,261.035400 138.371216,261.399597 
	C138.925232,260.242584 139.362518,259.009888 140.054520,257.942261 
	C142.401657,254.321243 145.395767,251.006683 147.126297,247.122208 
	C150.786163,238.906982 157.373199,238.220184 164.906815,239.060471 
	C168.734146,239.487366 169.541656,241.206573 167.347397,244.352219 
	C155.008896,262.040344 142.668030,279.726776 130.163971,297.706909 
	C125.310745,298.000000 120.621490,298.000000 115.466110,298.000000 
z"/>
<path fill="#199BD7" opacity="1.000000" stroke="none" 
	d="
M301.000000,226.550018 
	C299.664154,234.393967 298.217926,241.770111 297.020447,249.186432 
	C295.522308,258.465118 294.311157,267.790253 292.805237,277.067596 
	C292.217957,280.685364 290.963043,283.271851 286.099426,283.140991 
	C275.191742,282.847473 275.307037,283.181885 277.103851,272.472839 
	C279.831665,256.215027 282.554749,239.951614 284.871033,223.632538 
	C285.566132,218.735168 287.210876,216.273590 292.378967,216.976212 
	C294.978668,217.329666 297.609863,217.451447 300.613403,217.838989 
	C301.000000,220.700012 301.000000,223.400024 301.000000,226.550018 
z"/>
<path fill="#199AD6" opacity="1.000000" stroke="none" 
	d="
M116.991600,174.586182 
	C117.689018,172.191071 118.697624,170.270569 119.037537,168.238235 
	C122.095154,149.956833 125.035362,131.655792 128.355103,112.772583 
	C131.667053,110.989105 134.576340,108.965050 137.611694,108.754021 
	C146.562622,108.131699 155.591400,108.615082 164.539658,107.970825 
	C193.944534,105.853752 213.737610,89.390427 221.461212,60.958111 
	C222.418472,57.434258 222.986465,53.804665 223.734833,50.224072 
	C223.734833,50.224072 223.967819,50.158081 224.047913,50.067101 
	C233.574905,54.271248 238.656830,62.218155 239.795807,71.915443 
	C242.265564,92.943047 237.103348,111.894440 221.435730,126.999702 
	C211.851379,136.240036 199.801407,139.876755 186.848068,140.965012 
	C184.039871,141.200928 181.195053,140.999252 178.367096,141.001617 
	C168.444595,141.009918 166.571121,142.577408 165.084229,152.296158 
	C163.341232,163.688873 161.947052,175.147964 159.729111,186.446228 
	C159.148239,189.405197 156.075607,191.875015 153.418304,194.222198 
	C142.654648,193.639328 132.620590,193.347641 122.584602,193.243652 
	C121.412743,193.231506 120.230141,194.255798 119.052521,194.799622 
	C114.526978,193.552338 114.754784,190.101151 115.261391,186.554855 
	C115.811729,182.702377 116.413383,178.857254 116.991600,174.586182 
z"/>
<path fill="#199BD7" opacity="1.000000" stroke="none" 
	d="
M201.240036,261.299988 
	C197.520905,261.639008 194.161804,261.526978 190.942719,262.144623 
	C189.462540,262.428619 187.463074,263.914551 187.077850,265.252472 
	C185.992661,269.021576 185.526703,272.983521 184.996140,276.893829 
	C184.435760,281.023895 182.966095,283.661377 178.041672,283.076660 
	C174.636139,282.672302 171.143814,282.998962 166.756195,282.998962 
	C167.590546,276.351990 168.187622,270.369171 169.116699,264.438385 
	C171.331787,250.298309 173.569046,236.157913 176.172775,222.087128 
	C176.520279,220.209167 179.006027,217.344238 180.567398,217.300781 
	C189.828751,217.042938 199.270859,216.472382 208.346146,217.922470 
	C222.122757,220.123749 225.790329,225.682190 223.850616,239.773621 
	C222.397980,250.326691 216.038498,260.167999 201.240036,261.299988 
M203.523361,243.969864 
	C204.024536,242.958191 205.001984,241.913574 204.934738,240.941238 
	C204.755966,238.356308 204.972504,234.465515 203.491669,233.528763 
	C200.823532,231.840912 197.042389,231.855362 193.695755,231.367249 
	C193.262772,231.304108 192.314850,232.409683 192.173630,233.091553 
	C191.262741,237.490067 190.509796,241.921280 189.705048,246.341766 
	C190.181290,246.845093 190.657532,247.348434 191.133759,247.851776 
	C195.078232,246.743881 199.022690,245.635986 203.523361,243.969864 
z"/>
<path fill="#1F3D7D" opacity="1.000000" stroke="none" 
	d="
M69.188721,239.957794 
	C76.180977,237.168427 82.785362,237.279541 89.480087,239.714523 
	C90.823914,240.203308 92.505737,239.850388 94.021622,239.742981 
	C94.825500,239.686020 95.602036,239.149643 96.400497,239.123627 
	C110.507912,238.663620 109.929420,238.462082 107.986465,250.386002 
	C106.545425,259.229767 105.231819,268.094757 103.922470,276.959320 
	C103.333183,280.948883 101.592499,283.630493 97.102066,282.949982 
	C93.648987,282.426666 90.273781,281.332306 86.813164,280.941284 
	C85.217400,280.760956 83.375473,281.389374 81.857597,282.102966 
	C67.919121,288.655884 53.166641,280.422607 53.268806,265.423828 
	C53.344608,254.294846 58.163391,245.177094 69.188721,239.957794 
M88.721878,253.750717 
	C83.895493,249.870483 77.125809,250.233490 73.106354,254.588028 
	C69.959648,257.997070 69.016815,264.455017 71.221672,267.497009 
	C73.556259,270.717957 78.800507,271.994934 82.978874,270.359955 
	C89.172798,267.936218 92.000290,260.565948 88.721878,253.750717 
z"/>
<path fill="#199BD7" opacity="1.000000" stroke="none" 
	d="
M247.777557,238.005432 
	C248.393356,238.006943 248.587128,237.951355 248.722702,238.016647 
	C256.044220,241.543152 263.643280,238.787445 271.108337,238.986557 
	C274.382965,239.073883 276.262482,239.221085 275.352722,243.812256 
	C273.111298,255.123703 271.633575,266.591461 270.036682,278.022614 
	C269.560547,281.430969 268.113434,283.385559 264.598083,282.950073 
	C260.407562,282.430939 255.546021,284.961853 252.112839,280.252655 
	C244.755096,284.692657 237.103180,285.602478 229.058853,282.039215 
	C223.413528,279.538574 220.974396,274.634247 220.150330,269.166656 
	C217.506424,251.624817 231.309555,235.987167 247.777557,238.005432 
M255.158966,265.475677 
	C257.555847,261.819946 258.365753,257.498810 255.382782,254.450439 
	C253.313858,252.336121 249.334671,251.248093 246.192017,251.212830 
	C240.619125,251.150345 235.203430,258.732361 236.054962,264.333679 
	C236.807236,269.282074 241.704651,272.356873 247.529236,270.777618 
	C250.203003,270.052673 252.456772,267.778687 255.158966,265.475677 
z"/>
<path fill="#1BA5E5" opacity="1.000000" stroke="none" 
	d="
M119.514290,194.850403 
	C120.230141,194.255798 121.412743,193.231506 122.584602,193.243652 
	C132.620590,193.347641 142.654648,193.639328 153.118179,194.011566 
	C148.480347,194.413528 143.416214,194.807373 138.346176,194.911102 
	C132.225433,195.036331 126.099655,194.915527 119.514290,194.850403 
z"/>
<path fill="#212C65" opacity="1.000000" stroke="none" 
	d="
M223.358643,50.062157 
	C222.986465,53.804665 222.418472,57.434258 221.461212,60.958111 
	C213.737610,89.390427 193.944534,105.853752 164.539658,107.970825 
	C155.591400,108.615082 146.562622,108.131699 137.611694,108.754021 
	C134.576340,108.965050 131.667053,110.989105 128.380219,112.403214 
	C131.178696,92.207405 134.216766,71.780174 137.482346,51.389370 
	C138.146591,47.241802 140.987946,44.199112 145.344528,44.233932 
	C165.981140,44.398869 186.627594,44.551239 207.242310,45.396469 
	C212.541672,45.613754 217.738510,48.331303 223.358643,50.062157 
z"/>
<path fill="#47704C" opacity="1.000000" stroke="none" 
	d="
M35.507534,232.257599 
	C39.705021,234.073532 39.647480,237.676743 38.585976,240.450073 
	C37.650925,242.893005 35.277287,245.710281 32.912258,246.510788 
	C25.237663,249.108414 23.009792,246.759506 24.600382,238.678482 
	C25.294582,235.151566 24.473221,230.324280 30.699541,231.440018 
	C32.166595,231.702927 33.641113,231.924164 35.507534,232.257599 
z"/>
<path fill="#47704C" opacity="1.000000" stroke="none" 
	d="
M203.245255,244.248978 
	C199.022690,245.635986 195.078232,246.743881 191.133759,247.851776 
	C190.657532,247.348434 190.181290,246.845093 189.705048,246.341766 
	C190.509796,241.921280 191.262741,237.490067 192.173630,233.091553 
	C192.314850,232.409683 193.262772,231.304108 193.695755,231.367249 
	C197.042389,231.855362 200.823532,231.840912 203.491669,233.528763 
	C204.972504,234.465515 204.755966,238.356308 204.934738,240.941238 
	C205.001984,241.913574 204.024536,242.958191 203.245255,244.248978 
z"/>
<path fill="#47704C" opacity="1.000000" stroke="none" 
	d="
M88.906532,254.089020 
	C92.000290,260.565948 89.172798,267.936218 82.978874,270.359955 
	C78.800507,271.994934 73.556259,270.717957 71.221672,267.497009 
	C69.016815,264.455017 69.959648,257.997070 73.106354,254.588028 
	C77.125809,250.233490 83.895493,249.870483 88.906532,254.089020 
z"/>
<path fill="#47704C" opacity="1.000000" stroke="none" 
	d="
M255.029968,265.841431 
	C252.456772,267.778687 250.203003,270.052673 247.529236,270.777618 
	C241.704651,272.356873 236.807236,269.282074 236.054962,264.333679 
	C235.203430,258.732361 240.619125,251.150345 246.192017,251.212830 
	C249.334671,251.248093 253.313858,252.336121 255.382782,254.450439 
	C258.365753,257.498810 257.555847,261.819946 255.029968,265.841431 
z"/>
</svg>